<svg class="svg-icon" style="width: 1em; height: 1em;vertical-align: middle;fill: currentColor;overflow: hidden;" viewBox="0 0 1024 1024" version="1.1" xmlns="http://www.w3.org/2000/svg"><path d="M512 0C229.7 0 0 229.7 0 512s229.7 512 512 512 512-229.7 512-512S794.3 0 512 0z m0 979.5C254.2 979.5 44.5 769.8 44.5 512S254.2 44.5 512 44.5 979.5 254.2 979.5 512 769.8 979.5 512 979.5z" fill="" /><path d="M755.8 289.4c-12.2 0-22.3 10-22.3 22.3v400.7c0 12.2 10 22.3 22.3 22.3 12.2 0 22.3-10 22.3-22.3V311.7c0-12.3-10.1-22.3-22.3-22.3zM627.6 454.2L323.9 278.8c-20.9-12.1-45.9-12.1-66.8 0s-33.4 33.7-33.4 57.8v350.7c0 24.1 12.5 45.8 33.4 57.8 10.5 6 21.9 9.1 33.4 9.1s22.9-3 33.4-9.1l303.7-175.4c20.9-12.1 33.4-33.7 33.4-57.8 0-24-12.5-45.7-33.4-57.7z m-22.3 77.1L301.6 706.6c-10.1 5.8-18.9 1.9-22.3 0-3.3-1.9-11.1-7.7-11.1-19.3V336.6c0-11.6 7.8-17.3 11.1-19.3 2-1.2 6.1-3.1 11.2-3.1 3.3 0 7.1 0.8 11 3.1l303.7 175.4c10 5.8 11.1 15.4 11.1 19.3s-0.9 13.5-11 19.3z" fill="" /></svg>