<?xml version="1.0" encoding="iso-8859-1"?>
<!-- Generator: Adobe Illustrator 19.0.0, SVG Export Plug-In . SVG Version: 6.00 Build 0)  -->
<svg version="1.1" id="Layer_1" xmlns="http://www.w3.org/2000/svg" xmlns:xlink="http://www.w3.org/1999/xlink" x="0px" y="0px"
	 viewBox="0 0 490.6 490.6" style="enable-background:new 0 0 490.6 490.6;" xml:space="preserve">
<g>
	<g>
		<path fill="#1ed760" d="M438.5,126.804h-59.4l-209.3-124c-9.4-5.2-21.9-2.1-28.1,7.3c-5.2,9.4-2.1,21.9,7.3,28.1l148.8,88.5H52.1
			c-29.2,0-52.1,24-52.1,52.1v259.4c0,29.2,24,52.1,52.1,52.1h385.4c29.2,0,52.1-22.9,53.1-52.1v-259.4
			C490.6,149.704,466.7,126.804,438.5,126.804z M448.9,438.204c0,5.2-4.2,10.4-10.4,10.4H52.1c-5.2,0-10.4-4.2-10.4-10.4v-259.4
			c0-5.2,4.2-10.4,10.4-10.4h386.5c5.2,0,10.4,4.2,10.4,10.4v259.4H448.9z"/>
		<path fill="#1ed760" d="M185.4,202.804c-59.4,0-107.3,47.9-107.3,106.2s47.9,106.3,106.3,106.3c59.4,0,108.3-47.9,108.3-106.2
			C292.7,250.704,244.8,202.804,185.4,202.804z M184.4,374.704c-36.5,0-66.7-29.2-66.7-65.6c0-36.5,30.2-65.6,66.7-65.6
			s66.7,29.2,66.7,65.6C251,345.504,220.8,374.704,184.4,374.704z"/>
		<path fill="#1ed760" d="M376,208.004h-15.6c-11.5,0-20.8,9.4-20.8,20.8s9.4,20.8,20.8,20.8H376c11.5,0,20.8-9.4,20.8-20.8
			S387.5,208.004,376,208.004z"/>
		<path fill="#1ed760" d="M376,367.404h-15.6c-11.5,0-20.8,9.4-20.8,20.8c0,11.5,9.4,20.8,20.8,20.8H376c11.5,0,20.8-9.4,20.8-20.8
			C396.9,376.804,387.5,367.404,376,367.404z"/>
	</g>
</g>
<g>
</g>
<g>
</g>
<g>
</g>
<g>
</g>
<g>
</g>
<g>
</g>
<g>
</g>
<g>
</g>
<g>
</g>
<g>
</g>
<g>
</g>
<g>
</g>
<g>
</g>
<g>
</g>
<g>
</g>
</svg>
